<svg width="696" height="640" viewBox="0 0 522 480" xmlns="http://www.w3.org/2000/svg" xmlns:xlink="http://www.w3.org/1999/xlink">
<g id="graph0" class="graph" transform="translate(33, 479.20001220703125)">
<title>G</title>
<polygon fill="white" stroke="transparent" points="-4,4 -4,-482.4 460,-482.4 460,4 -4,4"/>
<g id="clust1" class="cluster">
<title>cluster_0</title>
<polygon fill="none" stroke="black" stroke-dasharray="5,2" points="48,-393.6 48,-470.4 337,-470.4 337,-393.6 48,-393.6"/>
<text text-anchor="middle" x="192.5" y="-453.8" font-family="Helvetica,Arial,sans-serif" font-size="14.00">Input layer</text>
</g>
<g id="clust2" class="cluster">
<title>cluster_1</title>
<polygon fill="lightgrey" stroke="lightgrey" points="8,-92.8 8,-385.6 448,-385.6 448,-92.8 8,-92.8"/>
<text text-anchor="middle" x="228" y="-369" font-family="Helvetica,Arial,sans-serif" font-size="14.00">Internal layers</text>
</g>
<g id="clust3" class="cluster">
<title>cluster_2</title>
<polygon fill="none" stroke="black" points="102,-8 102,-84.8 388,-84.8 388,-8 102,-8"/>
<text text-anchor="middle" x="245" y="-68.2" font-family="Helvetica,Arial,sans-serif" font-size="14.00">Output layer</text>
</g>
<!-- n04 -->
<g id="node1" class="node">
<title>n04</title>
<polygon fill="none" stroke="black" points="256.37,-437.6 201.63,-437.6 201.63,-401.6 256.37,-401.6 256.37,-437.6"/>
<text text-anchor="middle" x="229" y="-415.4" font-family="Helvetica,Arial,sans-serif" font-size="14.00">trait(4)</text>
</g>
<!-- n14 -->
<g id="node5" class="node">
<title>n14</title>
<ellipse fill="white" stroke="white" cx="165" cy="-334.8" rx="38.86" ry="18"/>
<text text-anchor="middle" x="165" y="-330.6" font-family="Helvetica,Arial,sans-serif" font-size="14.00">NAND</text>
</g>
<!-- n04&#45;&gt;n14 -->
<g id="edge1" class="edge">
<title>n04-&gt;n14</title>
<path fill="none" stroke="black" d="M215.74,-401.44C206.55,-389.55 194.17,-373.54 183.95,-360.31"/>
<polygon fill="black" stroke="black" points="186.48,-357.86 177.59,-352.09 180.94,-362.14 186.48,-357.86"/>
</g>
<!-- n13 -->
<g id="node6" class="node">
<title>n13</title>
<ellipse fill="white" stroke="white" cx="368" cy="-334.8" rx="31.92" ry="18"/>
<text text-anchor="middle" x="368" y="-330.6" font-family="Helvetica,Arial,sans-serif" font-size="14.00">AND</text>
</g>
<!-- n04&#45;&gt;n13 -->
<g id="edge16" class="edge">
<title>n04-&gt;n13</title>
<path fill="none" stroke="black" d="M251.26,-401.43C255.93,-398.45 260.97,-395.65 266,-393.6 284.41,-386.1 292.06,-394.15 310,-385.6 323.75,-379.05 336.83,-368.36 347.07,-358.57"/>
<polygon fill="black" stroke="black" points="349.71,-360.88 354.32,-351.33 344.77,-355.92 349.71,-360.88"/>
</g>
<!-- n11 -->
<g id="node7" class="node">
<title>n11</title>
<ellipse fill="white" stroke="white" cx="274" cy="-334.8" rx="27" ry="18"/>
<text text-anchor="middle" x="274" y="-330.6" font-family="Helvetica,Arial,sans-serif" font-size="14.00">OR</text>
</g>
<!-- n04&#45;&gt;n11 -->
<g id="edge24" class="edge">
<title>n04-&gt;n11</title>
<path fill="none" stroke="black" d="M238.32,-401.44C244.66,-389.78 253.16,-374.15 260.27,-361.07"/>
<polygon fill="black" stroke="black" points="263.45,-362.55 265.15,-352.09 257.3,-359.2 263.45,-362.55"/>
</g>
<!-- n03 -->
<g id="node2" class="node">
<title>n03</title>
<polygon fill="gray" stroke="gray" points="110.37,-437.6 55.63,-437.6 55.63,-401.6 110.37,-401.6 110.37,-437.6"/>
<text text-anchor="middle" x="83" y="-415.4" font-family="Helvetica,Arial,sans-serif" font-size="14.00">trait(3)</text>
</g>
<!-- n12 -->
<g id="node8" class="node">
<title>n12</title>
<ellipse fill="gray" stroke="gray" cx="74" cy="-334.8" rx="31.35" ry="18"/>
<text text-anchor="middle" x="74" y="-330.6" font-family="Helvetica,Arial,sans-serif" font-size="14.00">NOR</text>
</g>
<!-- n03&#45;&gt;n12 -->
<g id="edge3" class="edge">
<title>n03-&gt;n12</title>
<path fill="none" stroke="black" d="M81.14,-401.44C79.93,-390.34 78.33,-375.65 76.95,-362.98"/>
<polygon fill="black" stroke="black" points="80.42,-362.5 75.86,-352.93 73.46,-363.25 80.42,-362.5"/>
</g>
<!-- n02 -->
<g id="node3" class="node">
<title>n02</title>
<polygon fill="none" stroke="black" points="329.37,-437.6 274.63,-437.6 274.63,-401.6 329.37,-401.6 329.37,-437.6"/>
<text text-anchor="middle" x="302" y="-415.4" font-family="Helvetica,Arial,sans-serif" font-size="14.00">trait(2)</text>
</g>
<!-- n02&#45;&gt;n13 -->
<g id="edge23" class="edge">
<title>n02-&gt;n13</title>
<path fill="none" stroke="black" d="M315.68,-401.44C325.37,-389.28 338.5,-372.81 349.18,-359.41"/>
<polygon fill="black" stroke="black" points="351.96,-361.54 355.46,-351.53 346.49,-357.17 351.96,-361.54"/>
</g>
<!-- n02&#45;&gt;n11 -->
<g id="edge2" class="edge">
<title>n02-&gt;n11</title>
<path fill="none" stroke="black" d="M296.2,-401.44C292.38,-390.16 287.31,-375.16 282.98,-362.34"/>
<polygon fill="black" stroke="black" points="286.22,-361 279.7,-352.65 279.59,-363.25 286.22,-361"/>
</g>
<!-- n01 -->
<g id="node4" class="node">
<title>n01</title>
<polygon fill="none" stroke="black" points="183.37,-437.6 128.63,-437.6 128.63,-401.6 183.37,-401.6 183.37,-437.6"/>
<text text-anchor="middle" x="156" y="-415.4" font-family="Helvetica,Arial,sans-serif" font-size="14.00">trait(1)</text>
</g>
<!-- n01&#45;&gt;n14 -->
<g id="edge22" class="edge">
<title>n01-&gt;n14</title>
<path fill="none" stroke="black" d="M157.86,-401.44C159.07,-390.34 160.67,-375.65 162.05,-362.98"/>
<polygon fill="black" stroke="black" points="165.54,-363.25 163.14,-352.93 158.58,-362.5 165.54,-363.25"/>
</g>
<!-- n01&#45;&gt;n12 -->
<g id="edge15" class="edge">
<title>n01-&gt;n12</title>
<path fill="none" stroke="black" d="M134.42,-401.37C128.6,-396.45 122.42,-390.97 117,-385.6 108.76,-377.44 100.29,-367.92 93.07,-359.4"/>
<polygon fill="black" stroke="black" points="95.67,-357.05 86.58,-351.61 90.29,-361.53 95.67,-357.05"/>
</g>
<!-- n24 -->
<g id="node9" class="node">
<title>n24</title>
<ellipse fill="white" stroke="white" cx="259" cy="-262.8" rx="38.86" ry="18"/>
<text text-anchor="middle" x="259" y="-258.6" font-family="Helvetica,Arial,sans-serif" font-size="14.00">NAND</text>
</g>
<!-- n14&#45;&gt;n24 -->
<g id="edge25" class="edge">
<title>n14-&gt;n24</title>
<path fill="none" stroke="black" d="M184.93,-318.95C198.36,-308.96 216.25,-295.63 231.09,-284.58"/>
<polygon fill="black" stroke="black" points="233.49,-287.16 239.42,-278.38 229.31,-281.55 233.49,-287.16"/>
</g>
<!-- n21 -->
<g id="node11" class="node">
<title>n21</title>
<ellipse fill="gray" stroke="gray" cx="71" cy="-262.8" rx="31.35" ry="18"/>
<text text-anchor="middle" x="71" y="-258.6" font-family="Helvetica,Arial,sans-serif" font-size="14.00">NOR</text>
</g>
<!-- n14&#45;&gt;n21 -->
<g id="edge20" class="edge">
<title>n14-&gt;n21</title>
<path fill="none" stroke="black" d="M145.07,-318.95C131.28,-308.69 112.78,-294.91 97.72,-283.7"/>
<polygon fill="black" stroke="black" points="99.42,-280.6 89.31,-277.44 95.24,-286.22 99.42,-280.6"/>
</g>
<!-- n22 -->
<g id="node12" class="node">
<title>n22</title>
<ellipse fill="white" stroke="white" cx="171" cy="-262.8" rx="31.35" ry="18"/>
<text text-anchor="middle" x="171" y="-258.6" font-family="Helvetica,Arial,sans-serif" font-size="14.00">NOR</text>
</g>
<!-- n14&#45;&gt;n22 -->
<g id="edge4" class="edge">
<title>n14-&gt;n22</title>
<path fill="none" stroke="black" d="M166.48,-316.5C167.14,-308.78 167.94,-299.51 168.68,-290.91"/>
<polygon fill="black" stroke="black" points="172.17,-291.17 169.53,-280.9 165.19,-290.57 172.17,-291.17"/>
</g>
<!-- n23 -->
<g id="node10" class="node">
<title>n23</title>
<ellipse fill="gray" stroke="gray" cx="368" cy="-262.8" rx="31.92" ry="18"/>
<text text-anchor="middle" x="368" y="-258.6" font-family="Helvetica,Arial,sans-serif" font-size="14.00">AND</text>
</g>
<!-- n13&#45;&gt;n23 -->
<g id="edge5" class="edge">
<title>n13-&gt;n23</title>
<path fill="none" stroke="black" d="M368,-316.5C368,-308.78 368,-299.51 368,-290.91"/>
<polygon fill="black" stroke="black" points="371.5,-290.9 368,-280.9 364.5,-290.9 371.5,-290.9"/>
</g><g id="edge31" class="edge">
<title>n14-&gt;n33</title>
<path fill="none" stroke="black" d="M151.3,-317.83C143.7,-307.89 135,-294.44 131,-280.8 125.01,-260.37 128.02,-236.3 132.1,-218.34"/>
<polygon fill="black" stroke="black" points="135.52,-219.1 134.57,-208.55 128.73,-217.39 135.52,-219.1"/>
</g>
<!-- n34 -->
<g id="node13" class="node">
<title>n34</title>
<ellipse fill="white" stroke="white" cx="309" cy="-190.8" rx="38.86" ry="18"/>
<text text-anchor="middle" x="309" y="-186.6" font-family="Helvetica,Arial,sans-serif" font-size="14.00">NAND</text>
</g>
<!-- n13&#45;&gt;n34 -->
<g id="edge18" class="edge">
<title>n13-&gt;n34</title>
<path fill="none" stroke="black" d="M383.82,-318.81C400.94,-300.7 423.91,-269.58 409,-244.8 401.86,-232.93 372.25,-218.06 347.09,-207.09"/>
<polygon fill="black" stroke="black" points="348.29,-203.8 337.72,-203.1 345.55,-210.24 348.29,-203.8"/>
</g>
<!-- n42 -->
<g id="node20" class="node">
<title>n42</title>
<ellipse fill="gray" stroke="gray" cx="273" cy="-118.8" rx="27" ry="18"/>
<text text-anchor="middle" x="273" y="-114.6" font-family="Helvetica,Arial,sans-serif" font-size="14.00">OR</text>
</g>
<!-- n13&#45;&gt;n42 -->
<g id="edge21" class="edge">
<title>n13-&gt;n42</title>
<path fill="none" stroke="black" d="M385.31,-319.33C395.85,-309.55 408.66,-295.73 416,-280.8 437.35,-237.42 457.16,-212.1 429,-172.8 402.16,-135.34 347.33,-124.04 310.36,-120.81"/>
<polygon fill="black" stroke="black" points="310.2,-117.29 299.98,-120.07 309.7,-124.27 310.2,-117.29"/>
</g>
<!-- n11&#45;&gt;n24 -->
<g id="edge6" class="edge">
<title>n11-&gt;n24</title>
<path fill="none" stroke="black" d="M270.37,-316.85C268.7,-309.06 266.68,-299.62 264.8,-290.88"/>
<polygon fill="black" stroke="black" points="268.22,-290.12 262.7,-281.08 261.37,-291.59 268.22,-290.12"/>
</g>
<!-- n11&#45;&gt;n23 -->
<g id="edge17" class="edge">
<title>n11-&gt;n23</title>
<path fill="none" stroke="black" d="M291.68,-320.63C305.59,-310.27 325.21,-295.67 341.07,-283.86"/>
<polygon fill="black" stroke="black" points="343.5,-286.41 349.43,-277.63 339.32,-280.79 343.5,-286.41"/>
</g>
<!-- n11&#45;&gt;n22 -->
<g id="edge27" class="edge">
<title>n11-&gt;n22</title>
<path fill="none" stroke="black" d="M255.59,-321.29C239.87,-310.61 217.03,-295.08 199.05,-282.86"/>
<polygon fill="black" stroke="black" points="200.9,-279.89 190.66,-277.16 196.96,-285.68 200.9,-279.89"/>
</g>
<!-- n31 -->
<g id="node15" class="node">
<title>n31</title>
<ellipse fill="gray" stroke="gray" cx="393" cy="-190.8" rx="27" ry="18"/>
<text text-anchor="middle" x="393" y="-186.6" font-family="Helvetica,Arial,sans-serif" font-size="14.00">OR</text>
</g>
<!-- n11&#45;&gt;n31 -->
<g id="edge30" class="edge">
<title>n11-&gt;n31</title>
<path fill="none" stroke="black" d="M284.32,-317.69C290.94,-307.25 299.63,-293.32 307,-280.8 316.28,-265.03 315.2,-258.79 327,-244.8 338.16,-231.57 353.03,-219.29 365.83,-209.89"/>
<polygon fill="black" stroke="black" points="368.17,-212.52 374.28,-203.86 364.11,-206.81 368.17,-212.52"/>
</g>
<!-- n12&#45;&gt;n21 -->
<g id="edge7" class="edge">
<title>n12-&gt;n21</title>
<path fill="none" stroke="black" d="M73.26,-316.5C72.93,-308.78 72.53,-299.51 72.16,-290.91"/>
<polygon fill="black" stroke="black" points="75.66,-290.75 71.73,-280.9 68.66,-291.05 75.66,-290.75"/>
</g>
<!-- n32 -->
<g id="node16" class="node">
<title>n32</title>
<ellipse fill="gray" stroke="gray" cx="43" cy="-190.8" rx="27" ry="18"/>
<text text-anchor="middle" x="43" y="-186.6" font-family="Helvetica,Arial,sans-serif" font-size="14.00">OR</text>
</g>
<!-- n12&#45;&gt;n32 -->
<g id="edge19" class="edge">
<title>n12-&gt;n32</title>
<path fill="none" stroke="black" d="M57.63,-319.36C47.84,-309.58 36.31,-295.76 31,-280.8 23.78,-260.44 27.89,-236.04 33.18,-217.95"/>
<polygon fill="black" stroke="black" points="36.54,-218.94 36.27,-208.35 29.88,-216.8 36.54,-218.94"/>
</g>
<!-- n24&#45;&gt;n34 -->
<g id="edge8" class="edge">
<title>n24-&gt;n34</title>
<path fill="none" stroke="black" d="M270.6,-245.56C276.69,-237.03 284.3,-226.38 291.13,-216.82"/>
<polygon fill="black" stroke="black" points="294.15,-218.61 297.12,-208.43 288.46,-214.54 294.15,-218.61"/>
</g>
<!-- n41 -->
<g id="node19" class="node">
<title>n41</title>
<ellipse fill="gray" stroke="gray" cx="221" cy="-190.8" rx="31.35" ry="18"/>
<text text-anchor="middle" x="221" y="-186.6" font-family="Helvetica,Arial,sans-serif" font-size="14.00">NOR</text>
</g>
<!-- n24&#45;&gt;n41 -->
<g id="edge26" class="edge">
<title>n24-&gt;n41</title>
<path fill="none" stroke="black" d="M249.99,-245.21C245.45,-236.84 239.84,-226.51 234.77,-217.17"/>
<polygon fill="black" stroke="black" points="237.79,-215.39 229.94,-208.27 231.64,-218.73 237.79,-215.39"/>
</g>
<!-- n23&#45;&gt;n31 -->
<g id="edge9" class="edge">
<title>n23-&gt;n31</title>
<path fill="none" stroke="black" d="M374.05,-244.85C376.91,-236.86 380.38,-227.13 383.57,-218.2"/>
<polygon fill="black" stroke="black" points="386.94,-219.18 387,-208.59 380.34,-216.83 386.94,-219.18"/>
</g>
<!-- n21&#45;&gt;n32 -->
<g id="edge10" class="edge">
<title>n21-&gt;n32</title>
<path fill="none" stroke="black" d="M64.22,-244.85C60.99,-236.77 57.05,-226.92 53.44,-217.91"/>
<polygon fill="black" stroke="black" points="56.68,-216.57 49.72,-208.59 50.18,-219.17 56.68,-216.57"/>
</g>
<!-- n33 -->
<g id="node14" class="node">
<title>n33</title>
<ellipse fill="white" stroke="white" cx="140" cy="-190.8" rx="31.92" ry="18"/>
<text text-anchor="middle" x="140" y="-186.6" font-family="Helvetica,Arial,sans-serif" font-size="14.00">AND</text>
</g>
<!-- n22&#45;&gt;n33 -->
<g id="edge11" class="edge">
<title>n22-&gt;n33</title>
<path fill="none" stroke="black" d="M163.65,-245.21C160.08,-237.14 155.69,-227.23 151.67,-218.15"/>
<polygon fill="black" stroke="black" points="154.76,-216.48 147.51,-208.76 148.36,-219.32 154.76,-216.48"/>
</g>
<!-- n43 -->
<g id="node18" class="node">
<title>n43</title>
<ellipse fill="white" stroke="white" cx="114" cy="-118.8" rx="31.92" ry="18"/>
<text text-anchor="middle" x="114" y="-114.6" font-family="Helvetica,Arial,sans-serif" font-size="14.00">AND</text>
</g>
<!-- n22&#45;&gt;n43 -->
<g id="edge29" class="edge">
<title>n22-&gt;n43</title>
<path fill="none" stroke="black" d="M146.44,-251.15C129.71,-242.43 108.87,-228.33 99,-208.8 89.05,-189.12 94.57,-164.19 101.56,-145.72"/>
<polygon fill="black" stroke="black" points="104.8,-147.04 105.39,-136.46 98.33,-144.36 104.8,-147.04"/>
</g>
<!-- n22&#45;&gt;n41 -->
<g id="edge12" class="edge">
<title>n22-&gt;n41</title>
<path fill="none" stroke="black" d="M182.35,-245.92C188.67,-237.06 196.69,-225.84 203.77,-215.92"/>
<polygon fill="black" stroke="black" points="206.73,-217.79 209.7,-207.62 201.04,-213.72 206.73,-217.79"/>
</g>
<!-- n44 -->
<g id="node17" class="node">
<title>n44</title>
<ellipse fill="white" stroke="white" cx="196" cy="-118.8" rx="31.92" ry="18"/>
<text text-anchor="middle" x="196" y="-114.6" font-family="Helvetica,Arial,sans-serif" font-size="14.00">AND</text>
</g>
<!-- n34&#45;&gt;n44 -->
<g id="edge13" class="edge">
<title>n34-&gt;n44</title>
<path fill="none" stroke="black" d="M286.67,-175.97C269.13,-165.1 244.54,-149.87 225.39,-138.01"/>
<polygon fill="black" stroke="black" points="227.1,-134.95 216.75,-132.66 223.41,-140.9 227.1,-134.95"/>
</g>
<!-- n52 -->
<g id="node23" class="node">
<title>n52</title>
<polygon fill="none" stroke="black" points="380,-52 326,-52 326,-16 380,-16 380,-52"/>
<text text-anchor="middle" x="353" y="-29.8" font-family="Helvetica,Arial,sans-serif" font-size="14.00">O3</text>
</g>
<!-- n34&#45;&gt;n52 -->
<g id="edge34" class="edge">
<title>n34-&gt;n52</title>
<path fill="none" stroke="black" d="M321.77,-173.6C328.97,-163.58 337.4,-150.12 342,-136.8 350.39,-112.47 352.81,-83.11 353.33,-62.18"/>
<polygon fill="black" stroke="black" points="356.83,-62.12 353.45,-52.08 349.83,-62.03 356.83,-62.12"/>
</g>
<!-- n33&#45;&gt;n44 -->
<g id="edge36" class="edge">
<title>n33-&gt;n44</title>
<path fill="none" stroke="black" d="M152.71,-173.92C159.87,-164.97 168.95,-153.61 176.95,-143.61"/>
<polygon fill="black" stroke="black" points="179.83,-145.62 183.34,-135.62 174.36,-141.24 179.83,-145.62"/>
</g>
<!-- n33&#45;&gt;n43 -->
<g id="edge14" class="edge">
<title>n33-&gt;n43</title>
<path fill="none" stroke="black" d="M133.71,-172.85C130.74,-164.86 127.12,-155.13 123.81,-146.2"/>
<polygon fill="black" stroke="black" points="127,-144.74 120.24,-136.59 120.44,-147.18 127,-144.74"/>
</g>
<!-- n53 -->
<g id="node22" class="node">
<title>n53</title>
<polygon fill="none" stroke="black" points="308,-52 254,-52 254,-16 308,-16 308,-52"/>
<text text-anchor="middle" x="281" y="-29.8" font-family="Helvetica,Arial,sans-serif" font-size="14.00">O2</text>
</g>
<!-- n33&#45;&gt;n53 -->
<g id="edge35" class="edge">
<title>n33-&gt;n53</title>
<path fill="none" stroke="black" d="M164.53,-179.07C169.91,-176.88 175.61,-174.67 181,-172.8 236.84,-153.45 273.32,-183.91 309,-136.8 325.83,-114.58 312.79,-82.85 299.43,-60.73"/>
<polygon fill="black" stroke="black" points="302.3,-58.73 293.96,-52.19 296.4,-62.5 302.3,-58.73"/>
</g>
<!-- n31&#45;&gt;n42 -->
<g id="edge28" class="edge">
<title>n31-&gt;n42</title>
<path fill="none" stroke="black" d="M373.18,-178.24C353.73,-166.89 323.84,-149.46 301.77,-136.58"/>
<polygon fill="black" stroke="black" points="303.25,-133.39 292.84,-131.38 299.72,-139.44 303.25,-133.39"/>
</g>
<!-- n54 -->
<g id="node21" class="node">
<title>n54</title>
<polygon fill="none" stroke="black" points="236,-52 182,-52 182,-16 236,-16 236,-52"/>
<text text-anchor="middle" x="209" y="-29.8" font-family="Helvetica,Arial,sans-serif" font-size="14.00">O1</text>
</g>
<!-- n44&#45;&gt;n54 -->
<g id="edge33" class="edge">
<title>n44-&gt;n54</title>
<path fill="none" stroke="black" d="M198.69,-100.64C200.44,-89.54 202.74,-74.85 204.73,-62.18"/>
<polygon fill="black" stroke="black" points="208.22,-62.56 206.31,-52.13 201.3,-61.47 208.22,-62.56"/>
</g>
<!-- n51 -->
<g id="node24" class="node">
<title>n51</title>
<polygon fill="none" stroke="black" points="164,-52 110,-52 110,-16 164,-16 164,-52"/>
<text text-anchor="middle" x="137" y="-29.8" font-family="Helvetica,Arial,sans-serif" font-size="14.00">O4</text>
</g>
<!-- n43&#45;&gt;n51 -->
<g id="edge32" class="edge">
<title>n43-&gt;n51</title>
<path fill="none" stroke="black" d="M118.77,-100.64C121.88,-89.43 126.01,-74.55 129.56,-61.8"/>
<polygon fill="black" stroke="black" points="132.94,-62.71 132.24,-52.13 126.19,-60.83 132.94,-62.71"/>
</g>
<!-- n1 -->

</g>
</svg>